<svg id="Layer_1" data-name="Layer 1" xmlns="http://www.w3.org/2000/svg" viewBox="0 0 532.41 532.46"><defs><style>.cls-1,.cls-2{fill:#fff;}.cls-2{fill-rule:evenodd;}</style></defs><title>UofN seal</title><path class="cls-1" d="M508.15,624c.16,2.18.28,3.8.39,4.85s.24,2.07.4,3a21,21,0,0,0-2.79,0,18,18,0,0,0-2.77.29c.07-1,.1-2,.11-3.07s0-2.68,0-4.87c-.13-4.27-.31-9.07-.54-14.35s-.45-10-.69-14.15c-.15-2.18-.29-3.8-.39-4.86s-.25-2.06-.39-3.05a22,22,0,0,0,3.07,0,21.61,21.61,0,0,0,3-.31q6.11,7.32,16,17.54l11.66,11.84-.31-8.28q-.37-7.93-.74-14.3c-.16-2.16-.3-3.77-.41-4.81s-.24-2.09-.38-3.09a20.62,20.62,0,0,0,2.78.06,17.79,17.79,0,0,0,2.76-.3c-.05,1-.1,2-.11,3.07s0,2.69,0,4.87c.11,4.26.3,9,.52,14.35q.57,13.26,1.22,22.07a24.58,24.58,0,0,0-2.77-.06,25.27,25.27,0,0,0-2.8.31q-7.78-9-20.17-21.8l-7.81-7.91.34,8.64C507.64,615,507.88,619.75,508.15,624Z" transform="translate(-246.71 -118.22)"/><path class="cls-1" d="M334.47,527.6l15.39-13c-1.39-1.6-2.8-3.18-4.22-4.72q-2.55-2.65-3.51-3.46a15.8,15.8,0,0,0,4-3.34c.7,1.11,1.92,2.81,3.71,5.11s3.5,4.46,5.19,6.47l.72.87.73.86c1.68,2,3.5,4.07,5.48,6.22s3.43,3.65,4.39,4.53a13.31,13.31,0,0,0-2.13,1.5,14.38,14.38,0,0,0-1.83,1.84c-.43-.75-1.35-2.1-2.81-4.07-1.28-1.66-2.58-3.32-3.93-5l-15.38,12.94c-3.62,3-6.4,5.41-8.37,7.15s-4.09,3.66-6.37,5.81c-.88-1.15-1.89-2.41-3.07-3.8s-2.27-2.65-3.27-3.72c2.53-1.87,4.8-3.63,6.84-5.27S330.85,530.64,334.47,527.6Z" transform="translate(-246.71 -118.22)"/><path class="cls-1" d="M358.67,569.22q3.78-5.15,8.31-11.53c3.06-4.31,5.77-8.22,8.14-11.68,1.2-1.81,2.09-3.17,2.64-4.07s1.09-1.78,1.56-2.64q1.79,1.38,4.08,3c1.57,1.11,3,2.06,4.23,2.86-.66.75-1.31,1.53-2,2.34s-1.64,2.11-2.94,3.83c-1.78,2.36-3.62,4.92-5.57,7.73a86.1,86.1,0,0,0,7.36,5.87,74.26,74.26,0,0,0,8.07,5c2-2.76,3.75-5.37,5.39-7.81,1.21-1.81,2.08-3.16,2.66-4.07s1.07-1.77,1.54-2.63c1.18.93,2.55,1.93,4.08,3s3,2.06,4.23,2.86c-.65.74-1.32,1.54-2,2.36s-1.65,2.11-2.95,3.84c-2.5,3.42-5.28,7.27-8.3,11.55s-5.77,8.2-8.14,11.67c-1.21,1.81-2.09,3.18-2.65,4.07s-1.08,1.79-1.57,2.65c-1.19-.93-2.53-1.93-4.07-3s-3-2.06-4.22-2.84c.65-.75,1.3-1.54,2-2.37s1.64-2.1,3-3.84l7.64-10.52a82.11,82.11,0,0,0-7.43-5.91,74.27,74.27,0,0,0-8-5q-4.26,5.82-7.45,10.65-1.8,2.71-2.63,4c-.56.91-1.07,1.79-1.56,2.64-1.19-.92-2.54-1.93-4.08-3s-2.95-2-4.22-2.85c.66-.74,1.31-1.53,2-2.38S357.36,571,358.67,569.22Z" transform="translate(-246.71 -118.22)"/><path class="cls-1" d="M629.75,579.49l-10.89-17.35c-1.81,1.17-3.6,2.37-5.36,3.57-2,1.46-3.36,2.5-4,3.06a14.59,14.59,0,0,0-1.21-2.34,14.42,14.42,0,0,0-1.6-2.13c1.21-.53,3.1-1.55,5.67-3s5-2.9,7.27-4.31l1-.62,1-.61q3.38-2.13,7-4.65c2.43-1.69,4.16-2.94,5.18-3.8a13.69,13.69,0,0,0,1.23,2.35,15.36,15.36,0,0,0,1.57,2.12c-.79.31-2.28,1.07-4.47,2.25-1.87,1-3.72,2.16-5.56,3.27l10.89,17.35c2.56,4.08,4.57,7.21,6,9.44s3.12,4.65,5,7.25c-1.28.72-2.71,1.56-4.27,2.56s-3,1.92-4.21,2.77c-1.54-2.8-3-5.35-4.36-7.63S632.31,583.56,629.75,579.49Z" transform="translate(-246.71 -118.22)"/><path class="cls-1" d="M673.83,561.38c-2.89-3.17-6.14-6.65-9.76-10.49s-7-7.33-10-10.33c-1.54-1.53-2.7-2.65-3.47-3.38s-1.55-1.44-2.34-2.1q1.73-1.47,3.78-3.44c1.39-1.32,2.62-2.51,3.67-3.61.6.79,1.25,1.6,1.93,2.41s1.77,2,3.23,3.69q4.33,4.71,9.77,10.47t9.93,10.33c1.58,1.54,2.75,2.7,3.52,3.42s1.54,1.42,2.31,2.08c-1.15,1-2.42,2.11-3.79,3.43s-2.62,2.52-3.66,3.6c-.61-.79-1.27-1.62-2-2.44S675.29,563,673.83,561.38Z" transform="translate(-246.71 -118.22)"/><path class="cls-1" d="M268.45,384q5.64-6.94,15.6-7.64,11.07-.75,18.2,5.33t7.88,16.83q.74,10.77-4.92,17.7c-3.77,4.62-9,7.15-15.64,7.6-7.34.52-13.39-1.27-18.14-5.31s-7.39-9.63-7.88-16.83S264.68,388.63,268.45,384Zm5.35,26.86q5.7,3.27,15,2.63c5.55-.37,9.88-1.89,13-4.52A11.71,11.71,0,0,0,306,398.79a11.22,11.22,0,0,0-6.15-9.44c-3.8-2.18-8.82-3.07-15.05-2.63-5.54.37-9.86,1.89-12.93,4.52a11.63,11.63,0,0,0-4.23,10.15A11.27,11.27,0,0,0,273.8,410.86Z" transform="translate(-246.71 -118.22)"/><path class="cls-1" d="M705,533.05q-8.67,2.1-17-3.43-9.21-6.12-11.16-15.27t4-18.1q5.94-9,14.63-11t17,3.46q9.17,6.09,11.15,15.22t-4,18.12Q713.64,531,705,533.05ZM717,508.53q-2.57-6.06-10.31-11.18-6.94-4.62-13-4.3a11.58,11.58,0,0,0-9.52,5.49,11.3,11.3,0,0,0-.86,11.2q2.55,6.06,10.34,11.23c4.62,3.06,9,4.49,13,4.25a11.6,11.6,0,0,0,9.5-5.47A11.25,11.25,0,0,0,717,508.53Z" transform="translate(-246.71 -118.22)"/><path class="cls-1" d="M737.22,468.36c2.1.6,3.69,1,4.72,1.27s2,.48,3,.67c-.31.75-.61,1.62-.93,2.6s-.52,1.88-.69,2.66c-.92-.37-1.89-.77-2.88-1.15s-2.54-.9-4.61-1.62c-4.1-1.34-8.69-2.81-13.78-4.37s-9.59-2.9-13.65-4.09c-2.1-.6-3.67-1-4.73-1.27s-2-.48-3-.67c.34-.83.66-1.81,1-2.9s.6-2.05.79-2.91q9-3.39,22.11-9.37l15.21-7.15-8-2.5q-7.63-2.37-13.82-4.13c-2.1-.59-3.68-1-4.69-1.26s-2.08-.49-3.08-.68c.32-.75.6-1.61.91-2.61s.55-1.86.72-2.65c.92.38,1.88.77,2.87,1.15s2.55.91,4.63,1.62c4.09,1.34,8.68,2.8,13.83,4.39q12.74,3.93,21.37,6.29a21.43,21.43,0,0,0-1,2.58,21.7,21.7,0,0,0-.64,2.72c-7.49,2.91-16.67,6.88-27.61,11.9l-10.18,4.76,8.3,2.6C728.49,465.81,733.08,467.18,737.22,468.36Z" transform="translate(-246.71 -118.22)"/><path class="cls-1" d="M414.16,612.2c.43-.89.87-1.8,1.29-2.77s1-2.44,1.84-4.44c1.54-4,3.24-8.49,5.1-13.52s3.49-9.55,4.9-13.55c.69-2,1.2-3.57,1.49-4.57s.58-2,.82-2.93c1,.53,2.28,1.14,4,1.88s3.24,1.36,4.74,1.9l1.86.7c2.48.92,4.87,1.76,7.21,2.5a30.69,30.69,0,0,0,4.37,1.2,17.08,17.08,0,0,0-1.19,2.62,16.29,16.29,0,0,0-.79,2.75,28.47,28.47,0,0,0-3.82-1.82q-2.93-1.26-6-2.38l-.92-.34-2.35-.85-4.91,13.25,4.53,1.65c1.65.61,3.37,1.18,5.11,1.71a32.72,32.72,0,0,0,3.61.94,16.93,16.93,0,0,0-1.17,2.57,16,16,0,0,0-.77,2.69,30.81,30.81,0,0,0-3.36-1.65c-1.66-.72-3.33-1.4-5-2l-4.51-1.7-5.38,14.56.3.15,1.55.58c2.27.85,4.59,1.62,6.91,2.33a40,40,0,0,0,4.72,1.27,16.19,16.19,0,0,0-1.22,2.66,16.67,16.67,0,0,0-.8,2.81c-1.61-.78-3.54-1.62-5.78-2.55s-4.05-1.67-5.44-2.18l-1.87-.69c-1.48-.54-3.09-1.09-4.83-1.63S415.24,612.41,414.16,612.2Z" transform="translate(-246.71 -118.22)"/><path class="cls-1" d="M315.62,451.86l.31.94c.69,2.05,2.1,6.32,2.68,8.36a30.32,30.32,0,0,1,1,4.11,15,15,0,0,1,2.62-1.14,18,18,0,0,1,2.77-.71,31.67,31.67,0,0,1-1.8-4.15c-.89-2.26-2.51-6.88-3.37-9.38L319.2,448q-.76-2.24-1.5-4.87c-.48-1.76-.83-3.17-1-4.25-.9.4-1.83.79-2.8,1.21s-2.47,1-4.48,1.71c-4,1.42-8.5,3-13.58,4.72s-9.64,3.24-13.69,4.53c-2.07.64-3.6,1.1-4.6,1.37s-1.92.51-2.84.73h0l-.1,0,.1,0c.54,1.35,1.1,2.86,1.68,4.58s1.07,3.27,1.47,4.65c2.9-1.17,5.58-2.22,8-3.1s5.9-2.09,10.35-3.61l.77-.25h.26l1.51,4.56c.56,1.68,1.09,3.39,1.56,5.14a30.24,30.24,0,0,1,.83,3.64,16.28,16.28,0,0,1,2.59-1.09,16.76,16.76,0,0,1,2.73-.71,31,31,0,0,1-1.55-3.4q-1-2.52-1.88-5l-1.58-4.53,13.37-4.53Z" transform="translate(-246.71 -118.22)"/><path class="cls-1" d="M723.69,385.31a8.2,8.2,0,0,0-4.06,2.82,7.84,7.84,0,0,0-1.18,4.69,6.86,6.86,0,0,0,1.77,4.67,5.46,5.46,0,0,0,4.27,1.8,6.1,6.1,0,0,0,4.43-1.94,29.56,29.56,0,0,0,4.22-7.13,20.08,20.08,0,0,1,5.69-7.76,12.82,12.82,0,0,1,7.81-2.6,13.75,13.75,0,0,1,10.56,4.3,16,16,0,0,1,4.42,11.2,24.37,24.37,0,0,1-.58,5.7,25.26,25.26,0,0,1-1.9,5.53c-1.57-.43-2.91-.77-4.07-1s-2.51-.51-4.1-.74l-.06-1.36a10.36,10.36,0,0,0,5.18-3.33,8.73,8.73,0,0,0,1.56-5.54,7.92,7.92,0,0,0-2-5.33,6.41,6.41,0,0,0-9.41,0c-1.25,1.34-2.71,3.87-4.45,7.62a19.52,19.52,0,0,1-5.45,7.47,12.58,12.58,0,0,1-7.57,2.49A13.69,13.69,0,0,1,718.52,403a13.9,13.9,0,0,1-4.23-10.13,19.21,19.21,0,0,1,.59-5.37,26,26,0,0,1,2.13-5.46c1.24.46,2.31.83,3.24,1.11s2,.58,3.32.92Z" transform="translate(-246.71 -118.22)"/><path class="cls-1" d="M328.18,256.73c6.22,3.58,10.06,7.64,11.57,12.2s.62,9.62-2.6,15.17-6.86,8.68-11.2,9.78-9.25,0-14.8-3.14L308.09,289l-12.91-7.38c-1.65-.95-2.94-1.65-3.89-2.14s-2-1-3.23-1.58c.86-1.24,1.76-2.68,2.72-4.32s1.76-3.17,2.42-4.53c1,.75,1.95,1.43,2.86,2s2.15,1.41,3.8,2.45q5.63,3.47,12.75,7.59l2.33,1.35q6.71,3.88,11.34,3.27c3.1-.41,5.66-2.35,7.65-5.8s2.26-6.64.87-9.76-4.39-6.05-9-8.71l-1.33-.77-12.9-7.38c-1.79-1-3.15-1.76-4.11-2.25s-2-1-3-1.46a27.78,27.78,0,0,0,1.8-2.74,22.84,22.84,0,0,0,1.45-2.88q1.83,1.38,3.15,2.31c.88.6,2,1.36,3.49,2.25Q320,252,327.1,256.1Z" transform="translate(-246.71 -118.22)"/><path class="cls-1" d="M356.56,241.5c1.57,1.53,2.74,2.66,3.53,3.38s1.54,1.41,2.31,2.05a27,27,0,0,0-2.06,1.82c-.74.72-1.37,1.37-1.9,2-.62-.78-1.27-1.58-2-2.39s-1.77-2-3.25-3.64q-4.39-4.71-9.9-10.44c-3.66-3.78-7-7.16-9.95-10.15-1.57-1.53-2.73-2.66-3.51-3.37s-1.55-1.41-2.31-2.05c.69-.58,1.45-1.26,2.26-2s1.52-1.51,2.11-2.18q9.49,1.42,23.8,2.47L372.44,218l-5.76-6q-5.54-5.72-10.06-10.26c-1.55-1.52-2.73-2.65-3.52-3.37s-1.56-1.41-2.33-2.06c.62-.51,1.31-1.12,2.05-1.84s1.37-1.38,1.89-2c.64.78,1.28,1.58,2,2.39s1.79,2,3.27,3.65q4.4,4.71,9.93,10.47,9.25,9.62,15.64,15.8a23.62,23.62,0,0,0-2.12,1.78,23.12,23.12,0,0,0-1.87,2.06q-11.91-1.58-29.83-2.92L340.51,225l6,6.28Q352,237,356.56,241.5Z" transform="translate(-246.71 -118.22)"/><path class="cls-1" d="M400,205.82q-3.2-5.55-7.2-12.28t-7.42-12.19c-1.16-1.82-2.05-3.17-2.64-4.06s-1.19-1.72-1.8-2.52c1.32-.72,2.79-1.54,4.41-2.52s3.08-1.89,4.33-2.72c.41.91.87,1.83,1.37,2.76s1.26,2.37,2.32,4.28q3.18,5.52,7.21,12.29T408,201q1.77,2.78,2.65,4.08c.6.87,1.21,1.72,1.8,2.51-1.32.7-2.8,1.55-4.42,2.51s-3.08,1.88-4.34,2.72c-.41-.92-.88-1.85-1.38-2.82S401,207.72,400,205.82Z" transform="translate(-246.71 -118.22)"/><path class="cls-1" d="M419,163.43c-1.54-1.81-2.67-3.15-3.44-4s-1.5-1.66-2.24-2.4c1.54-.45,3.29-1,5.22-1.68s3.69-1.29,5.2-1.88c1.28,1.94,2.21,3.37,2.82,4.26s1.23,1.76,1.83,2.51l6.48,8.33,9.68,12h0l.16-10.72q.09-8.49.07-15.26c0-.35,0-1.06-.1-2.15s-.21-3.1-.41-6c.94-.25,2-.57,3.15-1s2.17-.78,3.05-1.16c-.06.55-.13,1.4-.2,2.55s-.19,3.14-.36,6l-.54,15.24c-.29,9.41-.39,17.27-.38,23.56a23.81,23.81,0,0,0-2.8.75,24.68,24.68,0,0,0-2.67,1.13c-3.86-5-8.76-11.15-14.76-18.42Z" transform="translate(-246.71 -118.22)"/><path class="cls-1" d="M483.76,183.23c0-1,0-2,0-3.07s-.08-2.62-.2-4.78q-.42-6.37-1.09-14.36c-.44-5.34-.86-10.12-1.29-14.32-.24-2.14-.44-3.73-.57-4.76s-.33-2-.5-3c1.09.07,2.55.08,4.37,0s3.52-.14,5.09-.25l2-.18c2.62-.22,5.15-.48,7.56-.78a29.74,29.74,0,0,0,4.46-.76,15.37,15.37,0,0,0,0,2.87,16.05,16.05,0,0,0,.45,2.81,29.13,29.13,0,0,0-4.21,0c-2.1.06-4.26.2-6.42.38l-1,.08-2.47.23,1.16,14,4.77-.43c1.76-.16,3.53-.36,5.34-.61a35.26,35.26,0,0,0,3.68-.67,16.31,16.31,0,0,0,0,2.8,17.68,17.68,0,0,0,.45,2.76,34.9,34.9,0,0,0-3.72,0c-1.83,0-3.61.13-5.36.26l-4.79.37,1.28,15.45h.32l1.65-.14c2.41-.19,4.84-.47,7.24-.8a41.25,41.25,0,0,0,4.79-.84,15.91,15.91,0,0,0,0,2.92,16.58,16.58,0,0,0,.45,2.88q-2.66,0-6.3.12t-5.81.32l-2,.17c-1.58.13-3.26.33-5.05.58A39.17,39.17,0,0,0,483.76,183.23Z" transform="translate(-246.71 -118.22)"/><path class="cls-1" d="M534.73,174.35c.81-4.22,1.64-8.9,2.52-14.08s1.67-10,2.3-14.16c.31-2.16.53-3.77.64-4.84s.22-2.09.27-3.08l3.3.68,1.69.28,4,.69,7.32,1.14c4,.68,6.9,2.19,8.78,4.56a10.88,10.88,0,0,1,1.92,8.92,10,10,0,0,1-5.59,7.68,14.83,14.83,0,0,1-6.21,1.46q1.65,4.85,4.2,11.41l1.59,4c1,2.57,1.82,4.45,2.32,5.6s1,2.21,1.52,3.16c-1.63-.36-3.52-.72-5.62-1.08s-4-.64-5.62-.85c-.8-2.77-1.93-6.23-3.38-10.31-1.73-4.87-3.28-9.06-4.64-12.61h0c-.85,4.79-1.57,9.13-2.13,13-.3,2.17-.5,3.79-.62,4.85s-.21,2.09-.28,3.08c-1.46-.33-3.13-.64-5-1s-3.59-.58-5.09-.76c.28-1,.53-2,.76-3S534.3,176.51,534.73,174.35Zm11.67-13.93,1.81.4a6.85,6.85,0,0,0,6-1.63,10.5,10.5,0,0,0,3.23-6.41,8.36,8.36,0,0,0-.77-5.9,6.4,6.4,0,0,0-4.63-2.81,14.71,14.71,0,0,0-2.77-.25Z" transform="translate(-246.71 -118.22)"/><path class="cls-1" d="M632,211.06q3.85-5.16,8.47-11.55t8.32-11.69c1.22-1.78,2.12-3.14,2.69-4s1.12-1.79,1.62-2.67c1.19.94,2.53,2,4.09,3.08s2.94,2.09,4.22,2.93c-.67.74-1.35,1.52-2,2.34s-1.69,2.12-3,3.86c-2.56,3.41-5.39,7.24-8.47,11.53s-5.89,8.21-8.32,11.71c-1.24,1.8-2.14,3.16-2.72,4.06s-1.1,1.79-1.6,2.65c-1.17-.94-2.54-2-4.08-3.07s-3-2.11-4.21-2.93c.66-.76,1.35-1.56,2-2.4S630.64,212.78,632,211.06Z" transform="translate(-246.71 -118.22)"/><path class="cls-1" d="M673,230.67,688,217q-2.21-2.35-4.47-4.59c-1.77-1.7-3-2.82-3.68-3.33a14.31,14.31,0,0,0,2.07-1.6,15.2,15.2,0,0,0,1.77-1.92c.76,1.06,2.08,2.73,4,5s3.73,4.35,5.51,6.29l.79.85.75.83q2.69,2.92,5.8,6c2.08,2.07,3.63,3.52,4.63,4.36a16.93,16.93,0,0,0-2.08,1.62,14.61,14.61,0,0,0-1.77,1.92,47.59,47.59,0,0,0-3-4q-2-2.46-4.18-4.84l-15,13.72q-5.25,4.81-8.12,7.57T664.82,251c-.91-1.11-2-2.36-3.25-3.72s-2.41-2.57-3.45-3.59c2.46-2,4.68-3.88,6.66-5.64S669.51,233.87,673,230.67Z" transform="translate(-246.71 -118.22)"/><path class="cls-1" d="M704.59,275.43q2.67-3.82,5.7-8.44t5.54-8.49q3.12-5,4.07-6.57c.67-1,.92-1.44.8-1.2.77,1.6,1.71,3.4,2.8,5.41s2.08,3.76,3,5.29l-5.76,7c-1,1.23-1.62,2-1.85,2.32-2.4,3.17-4.47,6-6.26,8.53h0l6.71-.33,7.33-.55c.67,0,1.58-.15,2.69-.31s3-.46,5.71-.9c.39.88.89,1.85,1.48,2.95s1.11,2,1.64,2.8c-.71-.05-1.68-.06-2.9-.06s-3.25,0-6.14.11l-9.22.27-10.52.44q-3.43,1.41-8.07,3.88l-1.7.95c-2,1.16-3.38,2-4.26,2.58a25.29,25.29,0,0,0-2.47,1.71c-.65-1.36-1.43-2.85-2.3-4.49s-1.76-3.12-2.52-4.42c2.94-1.37,5.11-2.42,6.54-3.14s2.82-1.41,4.16-2.15Z" transform="translate(-246.71 -118.22)"/><path class="cls-2" d="M253.46,384.43C253.46,241.13,369.63,125,512.93,125S772.38,241.13,772.38,384.43s-116.16,259.5-259.45,259.5S253.46,527.74,253.46,384.43Zm-6.75,0c0-147,119.19-266.21,266.22-266.21s266.2,119.17,266.2,266.21S660,650.67,512.93,650.67,246.71,531.49,246.71,384.43Z" transform="translate(-246.71 -118.22)"/><path class="cls-2" d="M322.34,383.82c0-105.52,85.52-191,191-191s191,85.5,191,191-85.51,191-191,191S322.34,489.33,322.34,383.82Zm-4.35,0c0-107.45,87.46-194.56,195.36-194.56s195.37,87.11,195.37,194.56S621.25,578.38,513.35,578.38,318,491.26,318,383.82Z" transform="translate(-246.71 -118.22)"/><path class="cls-1" d="M512,554.86" transform="translate(-246.71 -118.22)"/><path class="cls-1" d="M348,455.66l10.31-4.58-1.64-3.68,2.1-.93,4.38,9.85-2.1.94-1.63-3.68-10.3,4.58Z" transform="translate(-246.71 -118.22)"/><path class="cls-1" d="M357.43,460.29a8.58,8.58,0,0,1,3.35-1.12,6.5,6.5,0,0,1,2.24.22,5.42,5.42,0,0,1,1.92,1,7.77,7.77,0,0,1,1.86,2.33,6.32,6.32,0,0,1,.64,5.1,8.27,8.27,0,0,1-9.07,4.93,7.15,7.15,0,0,1-4.57-8.43A7,7,0,0,1,357.43,460.29Zm1.42,2.44a5,5,0,0,0-2.55,2.59,3.41,3.41,0,0,0,.23,2.95,3.36,3.36,0,0,0,2.32,1.79,5.18,5.18,0,0,0,3.61-.76,5.11,5.11,0,0,0,2.58-2.54,3.82,3.82,0,0,0-2.61-4.8A5.06,5.06,0,0,0,358.85,462.73Z" transform="translate(-246.71 -118.22)"/><path class="cls-1" d="M362.53,482.57l11.1-7.81,1.59,2.23-4.93,3.48,8.11,1.06,2.13,3-7.28-1.13-3.67,9.17-2-2.89L370.6,483l-3.13-.51-3.36,2.35Z" transform="translate(-246.71 -118.22)"/><path class="cls-1" d="M371.08,494.43l10.42-8.7,1.71,2.06-3.41,10.07,7-5.81,1.63,2L378,502.71l-1.76-2.12,3.29-9.88-6.81,5.67Z" transform="translate(-246.71 -118.22)"/><path class="cls-1" d="M384.91,500.47a8.78,8.78,0,0,1,2.94-2,6.5,6.5,0,0,1,2.2-.41,5.58,5.58,0,0,1,2.11.39,7.57,7.57,0,0,1,2.43,1.71,6.37,6.37,0,0,1,2.05,4.72,8.29,8.29,0,0,1-7.33,7.26,6.32,6.32,0,0,1-4.69-2.09,6.46,6.46,0,0,1-2.07-4.72A7.1,7.1,0,0,1,384.91,500.47Zm2.07,1.95a5,5,0,0,0-1.75,3.21,3.66,3.66,0,0,0,3.79,3.84,5.18,5.18,0,0,0,3.26-1.74,5.13,5.13,0,0,0,1.76-3.18,3.81,3.81,0,0,0-3.85-3.86A5.08,5.08,0,0,0,387,502.42Z" transform="translate(-246.71 -118.22)"/><path class="cls-1" d="M393.31,518.07l6.19-12.52,2.15,1.79-4.38,8.49,7.86-5.59,2.51,2.09-4.24,8.81,7.67-5.95,2.12,1.77L402,525.28l-2.24-1.87,4.42-9.51L395.58,520Z" transform="translate(-246.71 -118.22)"/><path class="cls-1" d="M419.21,531.23l1.22-1.93,5,3.18-2.9,4.56a7.44,7.44,0,0,1-2.9-.1,9.22,9.22,0,0,1-3.13-1.25,7.47,7.47,0,0,1-2.66-2.74,5.91,5.91,0,0,1-.63-3.44,8.12,8.12,0,0,1,1.27-3.48,8,8,0,0,1,2.78-2.71,6.09,6.09,0,0,1,3.55-.74,7.17,7.17,0,0,1,3.1,1.19,6.54,6.54,0,0,1,2.78,3,5,5,0,0,1,0,3.46l-2.57-1a3,3,0,0,0-.06-1.91,3.44,3.44,0,0,0-1.36-1.55,3.69,3.69,0,0,0-3-.56,4.73,4.73,0,0,0-2.7,2.27,5.32,5.32,0,0,0-1.05,3.64,3.68,3.68,0,0,0,1.73,2.54,5.5,5.5,0,0,0,1.64.64,6.31,6.31,0,0,0,1.71.1l.91-1.45Z" transform="translate(-246.71 -118.22)"/><path class="cls-1" d="M427.19,534.16a8.63,8.63,0,0,1,2.16-2.79,6.33,6.33,0,0,1,2-1.07,5.43,5.43,0,0,1,2.12-.28,7.38,7.38,0,0,1,2.84.88,6.44,6.44,0,0,1,3.41,3.87,8.32,8.32,0,0,1-4.74,9.15,6.32,6.32,0,0,1-5.1-.55,6.39,6.39,0,0,1-3.43-3.86A7,7,0,0,1,427.19,534.16Zm2.55,1.22a5.14,5.14,0,0,0-.67,3.6,3.52,3.52,0,0,0,1.85,2.31,3.47,3.47,0,0,0,2.93.19,5.16,5.16,0,0,0,2.57-2.66,5.06,5.06,0,0,0,.69-3.57,3.52,3.52,0,0,0-1.87-2.27,3.48,3.48,0,0,0-3-.22A5.13,5.13,0,0,0,429.74,535.38Z" transform="translate(-246.71 -118.22)"/><path class="cls-1" d="M443.85,534.93l4.63,1.93a9.63,9.63,0,0,1,2.27,1.23,4.82,4.82,0,0,1,1.43,1.94,6,6,0,0,1,.34,2.53,9.79,9.79,0,0,1-.83,3.14,8.76,8.76,0,0,1-1.49,2.5,5.94,5.94,0,0,1-2.26,1.65,4.77,4.77,0,0,1-2.2.26,8,8,0,0,1-2.34-.67l-4.76-2Zm1.64,3.18-3.45,8.3,1.9.79a7.7,7.7,0,0,0,1.57.51,2.54,2.54,0,0,0,1.24-.09,2.85,2.85,0,0,0,1.16-.94,8.28,8.28,0,0,0,1.21-2.19,7.42,7.42,0,0,0,.67-2.33,3.27,3.27,0,0,0-.2-1.52,2.71,2.71,0,0,0-.93-1.08,11.26,11.26,0,0,0-2-1Z" transform="translate(-246.71 -118.22)"/><path class="cls-1" d="M468.63,558l-2.87-.85-.27-3.29-5.2-1.52-2,2.64-2.78-.82,8.9-11.53,2.78.81Zm-3.34-6.58-.36-5.37-3.19,4.33Z" transform="translate(-246.71 -118.22)"/><path class="cls-1" d="M471,558.53l2.74-13.29,2.62.53,3.61,10,1.82-8.89,2.5.52-2.73,13.3-2.7-.55-3.57-9.78-1.79,8.68Z" transform="translate(-246.71 -118.22)"/><path class="cls-1" d="M487,547.85l5,.59a9.48,9.48,0,0,1,2.54.58,4.33,4.33,0,0,1,1.88,1.48,6.08,6.08,0,0,1,1,2.34,9.79,9.79,0,0,1,.05,3.23,8.83,8.83,0,0,1-.76,2.82,5.93,5.93,0,0,1-1.74,2.21,4.87,4.87,0,0,1-2,.84,8.2,8.2,0,0,1-2.44,0l-5.12-.62Zm2.43,2.61-1.08,8.92,2,.24a8.27,8.27,0,0,0,1.68.08,2.66,2.66,0,0,0,1.16-.43,2.9,2.9,0,0,0,.86-1.22,8.82,8.82,0,0,0,.58-2.44,8.21,8.21,0,0,0,0-2.43,3.08,3.08,0,0,0-.61-1.39,2.66,2.66,0,0,0-1.19-.79,13.18,13.18,0,0,0-2.22-.4Z" transform="translate(-246.71 -118.22)"/><path class="cls-1" d="M508.54,563.23l.14-11.26-4-.06,0-2.29,10.79.13,0,2.31-4,0-.15,11.27Z" transform="translate(-246.71 -118.22)"/><path class="cls-1" d="M516.7,556.63a8.9,8.9,0,0,1,.4-3.52,6.41,6.41,0,0,1,1.15-1.92,5.15,5.15,0,0,1,1.67-1.34,7.63,7.63,0,0,1,2.88-.72,6.36,6.36,0,0,1,4.92,1.56,7.18,7.18,0,0,1,2.13,5,7.09,7.09,0,0,1-1.47,5.25,6.3,6.3,0,0,1-4.65,2.16,6.38,6.38,0,0,1-4.93-1.54A7,7,0,0,1,516.7,556.63Zm2.82-.27a5.13,5.13,0,0,0,1.28,3.43,3.69,3.69,0,0,0,5.4-.34,5.25,5.25,0,0,0,.81-3.61,5.13,5.13,0,0,0-1.25-3.4,3.77,3.77,0,0,0-5.43.36A5.19,5.19,0,0,0,519.52,556.36Z" transform="translate(-246.71 -118.22)"/><path class="cls-1" d="M538.94,561.42l-2.46-13.36,4-.74,4.11,8.64.7-9.54,4-.75L551.85,559l-2.51.47-2-10.51-.7,11-2.6.49-4.58-10,2,10.51Z" transform="translate(-246.71 -118.22)"/><path class="cls-1" d="M567.29,554.85l-2.88.8-2-2.66-5.21,1.46-.26,3.26-2.8.78,1.46-14.5,2.79-.76ZM561,551l-3.16-4.35-.41,5.35Z" transform="translate(-246.71 -118.22)"/><path class="cls-1" d="M569.61,554,564.9,541.3l2.58-.94,2.09,5.66,3.11-7.57,3.46-1.28-3,6.72,7.91,5.93L577.76,551l-5.71-4.69-1.29,2.9,1.41,3.86Z" transform="translate(-246.71 -118.22)"/><path class="cls-1" d="M583.27,548.84l-5.69-12.33,9.13-4.21,1,2.08L581,537.45l1.26,2.73,6.18-2.85,1,2.07-6.19,2.86,1.55,3.36,6.89-3.18,1,2.08Z" transform="translate(-246.71 -118.22)"/><path class="cls-1" d="M600.5,540.34l-7-11.61,2.35-1.43,2.76,4.58,4.59-2.78-2.75-4.57,2.34-1.41,7,11.62-2.36,1.41-3.07-5.09-4.59,2.78,3.07,5.08Z" transform="translate(-246.71 -118.22)"/><path class="cls-1" d="M612.59,532.79l-7.65-11.2,2.25-1.55,7.67,11.2Z" transform="translate(-246.71 -118.22)"/><path class="cls-1" d="M617.62,529.44l-8.36-10.72,3.24-2.51,7.65,5.78-3.8-8.8,3.24-2.53,8.36,10.7-2,1.58-6.57-8.43,4.45,10.08-2.07,1.62-8.7-6.77,6.58,8.42Z" transform="translate(-246.71 -118.22)"/><path class="cls-1" d="M635,515.08l-9.58-9.63,2-1.92,4.23,4.27-.31-8.17,2.61-2.61.11,7.36,9.66,2.08-2.52,2.5L634,507.05l0,3.19,2.9,2.91Z" transform="translate(-246.71 -118.22)"/><path class="cls-1" d="M645.28,504.64,635,495.81l1.73-2,10.51,1.67-6.9-5.9,1.67-1.93,10.31,8.82-1.78,2.09L640.2,497l6.73,5.76Z" transform="translate(-246.71 -118.22)"/><path class="cls-1" d="M648.92,490a8.72,8.72,0,0,1-2.46-2.54,6.6,6.6,0,0,1-.78-2.12,5.43,5.43,0,0,1,0-2.13,7.7,7.7,0,0,1,1.28-2.7,6.38,6.38,0,0,1,4.31-2.81,8.36,8.36,0,0,1,8.4,6,7.13,7.13,0,0,1-5.6,7.79A7,7,0,0,1,648.92,490Zm1.57-2.36a5.19,5.19,0,0,0,3.47,1.18,3.66,3.66,0,0,0,3.15-4.38,6.45,6.45,0,0,0-5.68-4.12,3.8,3.8,0,0,0-3.17,4.44A5.08,5.08,0,0,0,650.49,487.61Z" transform="translate(-246.71 -118.22)"/><path class="cls-1" d="M664.82,478.81l-13.36-4,1.42-2.42,9.08,2.91-6.82-6.83,1.64-2.82,9.41,2.71L659,461.77l1.39-2.38,10.07,9.67L669,471.57l-10.13-2.76,7.42,7.43Z" transform="translate(-246.71 -118.22)"/><path class="cls-1" d="M673.19,463.85l-12.32-5.69,1.12-2.43,10.56-1.23-8.23-3.81,1.07-2.31,12.33,5.7-1.16,2.49-10.33,1.26,8,3.72Z" transform="translate(-246.71 -118.22)"/><path class="cls-1" d="M515.15,248c.93-2.19,2-4.67,3.11-7.43,1.88-4.66,3.38-8.55,4.48-11.71.49,0,.9.08,1.26.08a12.5,12.5,0,0,0,1.26-.08q1.68,4.71,4.42,11.66c1.09,2.79,2.09,5.27,3,7.48.53,1.3.92,2.22,1.16,2.78s.47,1,.66,1.38c-.86,0-1.82,0-2.93,0s-2,0-2.89,0c-.34-1.2-.57-2.09-.73-2.64s-.34-1.05-.5-1.51l-.93-2.54a37.93,37.93,0,0,0-4.26-.26,16.33,16.33,0,0,0-3.48.29c-.34.85-.64,1.7-.92,2.51-.1.28-.25.69-.4,1.26s-.41,1.51-.77,2.89c-.52,0-1.09,0-1.75,0s-1.21,0-1.73,0c.18-.34.41-.81.67-1.36S514.55,249.35,515.15,248Zm5.56-7.62-1,2.54a24.4,24.4,0,0,0,2.8.15c1.05,0,2.07-.07,3-.16l-.05-.14c-1-2.7-2-5.18-2.84-7.42h0C522.08,236.93,521.4,238.62,520.71,240.42Z" transform="translate(-246.71 -118.22)"/><path class="cls-1" d="M514.17,229c-.54,0-1,0-1.47,0q-.5,2.25-.69,3.09c-.14.54-.22.91-.27,1.09-.64,2.25-1.38,4.78-2.22,7.61l-1.6,5.31-2.33-7.65-1.53-5.27c-.15-.48-.28-1-.42-1.56s-.3-1.43-.56-2.62c-.6,0-1.27,0-2,0H500c-.66,0-1.26,0-1.82,0h0c-.34,1.5-.57,2.53-.7,3.09s-.22.91-.26,1.09c-.64,2.25-1.39,4.78-2.22,7.61l-1.6,5.31-2.34-7.65-1.53-5.27a15.4,15.4,0,0,1-.4-1.56c-.13-.57-.32-1.43-.57-2.62-.73,0-1.55,0-2.46,0s-1.73,0-2.43,0c.2.5.4,1,.59,1.59s.49,1.4.86,2.59l2.4,7.5c1.49,4.66,2.67,8.57,3.57,11.72a10.76,10.76,0,0,1,1.28-.09,10.47,10.47,0,0,1,1.27.09c.92-3.13,2.1-7,3.58-11.69l2.4-7.53v0l0,0,2.4,7.5q2.2,7,3.56,11.72a10.76,10.76,0,0,1,1.28-.09,10.91,10.91,0,0,1,1.29.09c.9-3.13,2.07-7,3.54-11.69l2.42-7.53c.48-1.41.82-2.39,1-3s.33-1,.46-1.23C515.21,228.93,514.71,229,514.17,229Z" transform="translate(-246.71 -118.22)"/><path class="cls-1" d="M562.72,248.09q0-3.33,0-7.53t0-7.49c0-1.15.06-2,.1-2.56s.07-1.09.11-1.61c-.37,0-.79,0-1.2,0a.08.08,0,0,1,0,0c-.53,0-1.14,0-1.79,0s-1.29,0-1.84,0v0l-.83,0c-.5,1.5-.86,2.53-1.06,3.09s-.34.91-.42,1.09c-1,2.25-2.1,4.78-3.39,7.61L550,246l-3.57-7.65-2.32-5.27a13,13,0,0,1-.62-1.56c-.21-.57-.5-1.43-.88-2.62-1.1,0-2,0-3.33,0h-1.41c-.54,0-1,0-1.45-.05v0c.05.51.09,1.05.13,1.58a2.35,2.35,0,0,0,0,.27c0,.56.05,1.31.08,2.3,0,2.21,0,4.69,0,7.47s0,5.29,0,7.57c-.05,1.15-.07,2-.09,2.56s-.08,1.1-.13,1.61a12.71,12.71,0,0,1,1.29-.06c.5,0,1.13,0,1.51.06,0-.51-.08-1.05-.12-1.61s-.06-1.41-.08-2.56c0-2.25-.06-4.77-.06-7.55V236l0-.68,2.39,5.28q3.36,7,5.43,11.72c.76-.06,1-.09,1.6-.09s1.21,0,2,.09c1.37-3.13,3.18-7,5.44-11.69l2.55-5.2c0,1.6,0,3.32,0,5.18,0,2.75,0,5.24,0,7.5,0,1.13-.05,2-.09,2.54s-.07,1.11-.12,1.63c.7,0,1.51,0,2.41,0s1.69,0,2.4,0c0-.51-.08-1.06-.11-1.6S562.75,249.25,562.72,248.09Z" transform="translate(-246.71 -118.22)"/><path class="cls-1" d="M470.56,242.49c-.73-1.45-1.54-3-2.46-4.74s-1.75-3.26-2.53-4.67l-2-3.52-.36-.65c.94,0,2,0,3.19,0s2.26,0,3.19,0c.88,2.15,1.46,3.62,1.79,4.4a14,14,0,0,0,.62,1.42c.85,1.91,1.64,3.58,2.35,5v0l1.54-3.17,1.56-3.52q.22-.48.54-1.32c.2-.55.55-1.51,1-2.85.49,0,1.08,0,1.73,0s1.19,0,1.7,0c-.21.31-.45.75-.76,1.32s-.79,1.5-1.47,2.85L478,237.41l-2.44,5c-.13,1.29-.21,2.86-.24,4.7l0,1c0,1.17.08,2,.12,2.6s.09,1.08.16,1.56c-.77,0-1.66,0-2.64,0s-1.87,0-2.67,0c.1-1.71.17-3,.19-3.8s0-1.66,0-2.46Z" transform="translate(-246.71 -118.22)"/><path class="cls-1" d="M457.33,421.27a31.8,31.8,0,0,0-14.43-.3c-4.32,1-7.25,2.75-7.8,4.44-.75,2.34.9,3.89,2,4.89.37.35.69.67,1,1l.58.65v35.46L467,474.67V439l1-.7a9.39,9.39,0,0,0,2.09-2.09,5.16,5.16,0,0,0,1-2.82,9,9,0,0,0-2.33-6.51C466.65,424.68,463.15,422.67,457.33,421.27ZM459,449.13a1.37,1.37,0,0,1,1.25,1.45,1.27,1.27,0,1,1-2.52,0A1.37,1.37,0,0,1,459,449.13Zm-3.53-10.07a1.58,1.58,0,0,1,0,3.12,1.58,1.58,0,0,1,0-3.12Zm-3.31,17.62a2.1,2.1,0,1,1,2.1-2.09A2.09,2.09,0,0,1,452.13,456.68Zm4,11a2.46,2.46,0,1,1,2.47-2.45A2.45,2.45,0,0,1,456.17,467.72Zm4.23-6.59a2.46,2.46,0,1,1,2.46-2.47A2.46,2.46,0,0,1,460.4,461.13Zm2-16.17a1.29,1.29,0,0,1-1.38-1.17,1.41,1.41,0,0,1,2.76,0A1.29,1.29,0,0,1,462.44,445Z" transform="translate(-246.71 -118.22)"/><path class="cls-1" d="M545.09,403.86" transform="translate(-246.71 -118.22)"/><path class="cls-1" d="M565.61,432.43s0-2.3-3.47-7.68c0,0-.42-.75-1-1.83" transform="translate(-246.71 -118.22)"/><path class="cls-1" d="M540.84,406.32" transform="translate(-246.71 -118.22)"/><path class="cls-1" d="M559.54,460.87" transform="translate(-246.71 -118.22)"/><path class="cls-1" d="M560,461.55" transform="translate(-246.71 -118.22)"/><path class="cls-1" d="M551.69,436.3s-1.85-4.88-2.73-7.17a17.94,17.94,0,0,0-2.62-5.31c0-.07-1.31-2.43-2.47-5.29-.27-1.23-1.23-4.37-2.57-5a1.13,1.13,0,0,0-1,.08.37.37,0,0,1-.52-.14.38.38,0,0,1,.15-.52,1.84,1.84,0,0,1,1.7-.12c1.93.86,2.88,5,3,5.45,1.12,2.75,2.37,5.08,2.38,5.11a17.51,17.51,0,0,1,2.7,5.48c.88,2.24,2.72,7.13,2.72,7.13Z" transform="translate(-246.71 -118.22)"/><path class="cls-1" d="M563.64,473.5a5.39,5.39,0,0,0,2.54-3,.2.2,0,0,1,0-.11.39.39,0,0,1,.46-.22.4.4,0,0,1,.27.25c.5.66,1,1.34,1.43,1.93l.09.13a.4.4,0,0,1,0,.35c-.48,1.39-.83,2.55-1.12,3.63a1.11,1.11,0,0,0,.35,1l2,1.46a.45.45,0,0,1,.1.09.38.38,0,0,1,.07.44c-2.47,5.07-8.77,6-9,6a21.5,21.5,0,0,1-2.37.12c-7.32,0-10.79-3.53-11.19-4-.69-.51-1-2.17-1-2.5l-.61-10.77a.38.38,0,0,1,.7-.21.39.39,0,0,1,.08.19,4.84,4.84,0,0,0,.22,1.07s1.35,3.25,6.52,4.84a13.07,13.07,0,0,0,4.36.7,13.53,13.53,0,0,0,4.45-.74m-15.43-3.47.47,8.31a4.17,4.17,0,0,0,.71,2,.22.22,0,0,1,.09.07s3.39,3.74,10.65,3.74a22.16,22.16,0,0,0,2.27-.12c.05,0,5.91-.84,8.32-5.3l-1.86-1.34a2,2,0,0,1-.61-1.79c.29-1.06.63-2.18,1.1-3.5l-1.05-1.43a6.1,6.1,0,0,1-2.71,2.86,14.64,14.64,0,0,1-11,.77A11.85,11.85,0,0,1,546.59,470.72Z" transform="translate(-246.71 -118.22)"/><path class="cls-1" d="M547.42,464" transform="translate(-246.71 -118.22)"/><path class="cls-1" d="M565.61,472.71a.3.3,0,0,1-.19,0h0a.34.34,0,0,1-.18-.24c-.09-.34-.14-.6-.21-.84a29.64,29.64,0,0,0-1.35-4.37.39.39,0,0,1,.17-.46.36.36,0,0,1,.48.09l.45.61,2,2.75a.38.38,0,0,1,.18.33.4.4,0,0,1-.06.22,5.84,5.84,0,0,1-1,1.83A.37.37,0,0,1,565.61,472.71Zm-.42-3.38a21.33,21.33,0,0,1,.57,2.08h0a6.62,6.62,0,0,0,.36-.81Z" transform="translate(-246.71 -118.22)"/><path class="cls-1" d="M464.59,316.15l-8.71-11.49c2.32-.19,4.65-.39,6.95-.61-.8-1-1.6-2.05-2.37-3.07-2.33.19-4.65.34-7,.53-1.17-1.54-2.33-3.06-3.46-4.57l-4.93.27,3.45,4.68c-2.52.17-5.06.38-7.6.57.8,1.09,1.6,2.2,2.4,3.31,2.54-.22,5.07-.45,7.62-.66,2.88,3.9,5.8,7.8,8.7,11.71Z" transform="translate(-246.71 -118.22)"/><path class="cls-1" d="M540,321.71a.8.8,0,1,1-.8-.81A.8.8,0,0,1,540,321.71Z" transform="translate(-246.71 -118.22)"/><path class="cls-1" d="M538.77,418.81h-.08c-.13,0-.25-.1-.28-.22-1.47-4.53.46-7.37.53-7.49a.45.45,0,0,1,.37-.16.39.39,0,0,1,.31.23l.84,2a.38.38,0,0,1-.07.41s-.7.82,0,2.58l.6,1.67a.4.4,0,0,1-.1.43.41.41,0,0,1-.45,0,1.19,1.19,0,0,0-.54-.14.75.75,0,0,0-.69.46.24.24,0,0,1-.1.1A.47.47,0,0,1,538.77,418.81Zm.47-6.61a8.52,8.52,0,0,0-.3,5.48,1.44,1.44,0,0,1,1-.3l-.36-1a3.48,3.48,0,0,1,.07-3.15Z" transform="translate(-246.71 -118.22)"/><path class="cls-1" d="M546,459.78a.43.43,0,0,1-.24-.08c-.24-.18-5.76-4.66-6.24-17.3a12.76,12.76,0,0,0-1.1-4.26c-.06-.1-2.15-3.75-2.56-4.65h0a4.52,4.52,0,0,1-.43-3.3c0-.1,1.91-7.34,2-9,.07-.37.62-3.08,1.95-3.69a1.47,1.47,0,0,1,1.39.11.46.46,0,0,1,.16.21l.67,1.9a.39.39,0,0,1-.23.49.37.37,0,0,1-.48-.24l-.62-1.76a.6.6,0,0,0-.56,0c-.84.37-1.4,2.4-1.52,3.07-.09,1.7-1.93,8.78-2,9.09a3.67,3.67,0,0,0,.36,2.76c.42.91,2.55,4.65,2.57,4.69a12.88,12.88,0,0,1,1.18,4.59c.46,12.22,5.9,16.65,6,16.7a.37.37,0,0,1,.06.53A.34.34,0,0,1,546,459.78Z" transform="translate(-246.71 -118.22)"/><path class="cls-1" d="M625.14,266h0c-.22,0-.45,0-.68,0a3.76,3.76,0,0,0-.58,0H400c-3,0-8.09,1.67-8.51,7.8l0,0V403.28c0,.47-1.16,47.35,59.76,97,21.55,17.56,41.88,30.56,60.43,38.64l.51.23.52-.23c18.75-8.24,39-21.23,60.06-38.61,59.23-48.73,59.77-96.43,59.76-96.91V274.66C632.51,268.65,628.82,266.28,625.14,266Zm-78.43,19.23c.36-.52,3.45.43,7.14,4.87a16.08,16.08,0,0,1,1.81,2.76c-.66-2.3-1.55-4.5-.66-4.51.6.19,2.81.78,5.41,6.4a11.51,11.51,0,0,1,.07,5.28,9.22,9.22,0,0,0,.73-2.75c.33-3.14-.33-5.81.56-6,.5-.17,2.14,1.19,3.23,4.39a14.13,14.13,0,0,1-5.26,5.49l0,0c-3,2.08-8.11,6.37-8.43,12a21.83,21.83,0,0,0,.21,6h0l-1-.5a39.45,39.45,0,0,0-3.85-1.92c-1.13-4.08,1.05-8.35,2.5-10.57C556.77,295.61,545.43,286.48,546.71,285.26Zm-10.53,36.15c.59-1.94,2.66-2.83,4.47-3.3,3.08-.78,7,1.67,9.74,3.12.94.48,2.74,1.52,5,2.8-.11-.26-.23-.51-.33-.78a19.89,19.89,0,0,1-1.49-9.86c.22-4.62,4.76-8.45,7.44-10.31,12.87-8.21,4.73-20.42,6.62-21.27.63-.4,3.54,1.42,5.56,6.84a14.22,14.22,0,0,1,.71,3.21c.31-2.43.33-4.83,1.29-4.61.57.36,2.67,1.57,3,7.83a11.59,11.59,0,0,1-2.22,5.2,10.1,10.1,0,0,0,2-2.48c1.75-3,2.21-5.81,3.25-5.74.77,0,2.27,2.55,1.24,7.46a11,11,0,0,1-1.66,3.81,6,6,0,0,0,.77-1c1.82-2.48,1.62-5.06,2.62-5.36.59-.42,3.2,2.23,1.73,7.39a14,14,0,0,1-2.7,4.7,10.88,10.88,0,0,0,1-.57c2.2-1.28,3.07-3.11,4.1-3,.78-.06,1.84,2.79-.67,6.35-1.93,2.52-4.72,4.22-7.49,6,1.29-.36,2.36-.65,3.1-.93,1.89-.69,3.22-1.78,4.11-1.37s1.07,2.54-1.21,5.19a19.31,19.31,0,0,1-5.81,3.83c1.35.48,2.11,1.22,2,1.86-.12,1.19-1.9,2.07-4.2,3.12,1.66.91,1.68,2.4,1.11,2.81-1.62.8-1.78,1.4-3.08,2.71.84.39,1.68.78,2.55,1.11,2.32.91,22.49,2,23.92,1.76a3.39,3.39,0,0,1,3.59,3.25,3.43,3.43,0,0,1-3.53,3.31c-1,.21-7.81-.24-13.57-1.16,5.71,1.5,12.52,3.71,13.57,4,1.92.67,2.49,2.29,2.41,4.1s-2.68,2.81-4.52,2.13a102.53,102.53,0,0,1-12.27-5.7,85.71,85.71,0,0,1,8.27,6.62,2.88,2.88,0,0,1-.53,4.27c-1.54.93-3.06,1.43-4.16.34-.61-.67-10.67-13.78-12.9-14.76a6,6,0,0,0-4.32-.42c-4,1.16-7.56,3.56-11.71,3.52-3.34-.06-7.23-2.82-9.91-4.74-3.36-2.41-5.56-5.9-7.3-9.55a20.78,20.78,0,0,0-4-6.29,4.76,4.76,0,0,0-2.76-1.23c-.62-.61-1.56-1.5-2.67-2.42A3,3,0,0,1,536.18,321.41ZM536,324c.76.64,1.46,1.27,2,1.76-1.25.5-3.78,1.7-3.78,1.7C534.16,326,535.19,324.94,536,324Zm-79.1-34.6a4.8,4.8,0,0,1,3.57,1.55l31.89,39.4c.77,1.06.4,2.12-.77,2.3l-33.29,5.47-34.1-47.27Zm13,72c.34.64.17.85-.53.64-5.43-1.34-7.63-7.33-8.05-12.36-.07-.61-.08-1.22-.11-1.8a7.33,7.33,0,0,0-1.66-4.31l6.56-1.13a7.33,7.33,0,0,1,2,4.62,4.22,4.22,0,0,1,0,.95c-.14,4,2.7,6.91,6.73,7.64.39.07.28.34,0,.36a22,22,0,0,1-5.82,1c-.3,0-.43.12-.38.39A12.45,12.45,0,0,0,469.88,361.47Zm16.3-19.7a6.72,6.72,0,0,0,.38,1.2l-17.64,3.54a9.65,9.65,0,0,0-.27-1.32Zm-18,2.25a7.56,7.56,0,0,0-.72-1.26L486,339.33a9.11,9.11,0,0,0,0,1.28Zm18-5.92-32.17,5.81c.33-.56.71-1.1,1.09-1.65l31.52-5.54A11.63,11.63,0,0,0,486.24,338.1Zm-27.32,6.26a6.22,6.22,0,0,1,.78,1.27L452.49,347c.23-.53.49-1.07.75-1.61Zm1.19,2.5a7.17,7.17,0,0,1,.19,1.37l-9,1.81c.17-.54.36-1.06.55-1.57Zm9.2,3.56a6.34,6.34,0,0,1-.33-2.31c0-.25,0-.51,0-.76l18.11-3.49.62.85c.76,1.05.41,2.08-.77,2.3Zm18.05-15-31,5.29c.19-.23.4-.45.6-.67.37-.4.67-.76,1-1q15.25-2.52,30.51-5.06A9.67,9.67,0,0,0,487.36,335.41Zm-64.61-44.29,34.1,47.28a30.68,30.68,0,0,0-7.24,12.7L460.34,349c0,.26,0,.54,0,.79.08.76.18,1.52.31,2.29l-11.47,2.2-33.3-49.37C416.38,298.71,419,293.84,422.75,291.12Zm68,144.94V474l-19.41,7.22-2.95-.82-34.2-8.81-.24-.05V433.76l-.06,0c-1.94-1.82-4.9-4.59-3.24-9.73,1-3.18,5.26-6.18,11.21-7.55a36.48,36.48,0,0,1,16.54.31c5.48,1.34,9.34,3.23,12,5.43-.19-.24-.38-.46-.58-.69-2.4-2.67-6.25-5.05-12.2-6.71,1.86,0,3.89,0,6.06.13,13.4.77,27.24,2.65,30,8.52S490.78,436.06,490.78,436.06Zm70.05,49c-9.17.91-13.25-3.75-13.25-3.75-.63-.4-.89-2.28-.89-2.28l-.62-10.72,0,0a6.72,6.72,0,0,1,1.3-4.3h0c.31,3.41.93,7.86,1,8h0c0-.1-.62-4.64-.94-8,0-.53-.08-1-.11-1.46a6.34,6.34,0,0,0-.26-1.62,3.15,3.15,0,0,0-1-1.53s-5.64-4.4-6.11-17a12.57,12.57,0,0,0-1.12-4.39s-2.17-3.78-2.56-4.65a4.18,4.18,0,0,1-.42-3.09s1.92-7.33,2-9.05a8.26,8.26,0,0,1,1.1-2.93c0,.05-.08.06-.11.13l-.07,0c-1.41-4.4.51-7.14.51-7.14l.84,2s-.88.93-.14,3l.62,1.68c.4,1.12,1,2.79,1.59,4.74,0,0,1.07,3.4,2.21,6.37a9.82,9.82,0,0,1,.44,1.4l2.16,8.83s0,.35,0,.87c0,4.1,1.76,14.65,9.73,18.62a6.1,6.1,0,0,1,2.79,2.07s2.18,3,4.51,6.23l.37,1.08,1.87,2.55c0,.07.1.14.14.2s-.16.42-.25.61c.09-.19.17-.4.25-.61.21.29.42.57.61.85l.72,1c-.38,1.07-.74,2.25-1.09,3.52a2,2,0,0,0,.6,1.79l2.13,1.53a.07.07,0,0,1,0,0C566.88,484.27,560.83,485.08,560.83,485.08ZM555.1,428a22.25,22.25,0,0,1-2.18-4.85c0-.2-1.36-4.83-4-7.25,0,0-2.78-3.42-3.78-5l-2.77-4.17a2.56,2.56,0,0,0-1.37-.82h0a2.86,2.86,0,0,1,0-3.49,1.5,1.5,0,0,1,1.19-.51A3.17,3.17,0,0,1,544,403c.18.25.45.65.77,1.13l.07.08h0c.78,1.18,1.68,2.67,1.68,2.67a50.17,50.17,0,0,0,3.16,4.69c1.34,1.41,2.47,2.35,2.48,2.37a21.33,21.33,0,0,1,3.51,5.92c1,2.4,2.68,5.87,2.7,5.89a27.64,27.64,0,0,1,2.26,6.75.37.37,0,0,0,.37.33h0a.37.37,0,0,0,.33-.42,25.89,25.89,0,0,0-2.31-7s-1.66-3.48-2.69-5.87c-.07-.16-1.68-4.17-3.7-6.18,0,0-1.14-1-2.42-2.3a46.77,46.77,0,0,1-3.09-4.6s-.83-1.37-1.58-2.53a.55.55,0,0,1,.37-.14c.63,0,1.4,1,1.66,1.34a11.78,11.78,0,0,0,2.88,2.7,7.07,7.07,0,0,1,2,2.26s.05.07.06.1c.81.87,2.64,3,2.68,3.07a16.7,16.7,0,0,1,3.46,5.17,36.5,36.5,0,0,0,2.12,4.76.43.43,0,0,0,.15.21.38.38,0,0,0,.56-.48c-.11-.51-.74-4,1.69-5.66a.44.44,0,0,1,.42,0c.21.12.62.53.82,1.9a21.86,21.86,0,0,0,1.84,7.31,25.41,25.41,0,0,1,2.48,6,9.78,9.78,0,0,0,.64,2,41.61,41.61,0,0,1,2.94,15.33,10.38,10.38,0,0,0,1.92,5.69,31.62,31.62,0,0,0,2.64,2.74l-.36.26c-.21.16-5.09,4-8.6,13.35-.12-.17-.25-.34-.36-.51l-.76-1-4.32-5.94-2.7-3.71a6.29,6.29,0,0,0-3-2.2c-7.37-3.68-9.45-13.56-9.51-18.27,0-.51,0-.86,0-.86a.31.31,0,0,0,0-.11c-1-4.22-2.15-8.83-2.15-8.83a9.52,9.52,0,0,0-.46-1.44c-1.12-2.93-2.21-6.31-2.21-6.35-1.14-3.6-2.16-6.28-2.16-6.32a2.6,2.6,0,0,1,0-2.75.35.35,0,0,0,0-.34c-.13-.36-.3-.71-.44-1-.72-1.65-1.29-3-.43-4.53l.1-.17c.41-.67.8-.69,1.06-.65a.46.46,0,0,0,.27-.07,1.94,1.94,0,0,1,.71.46l2.72,4.11c1,1.65,3.73,5,3.87,5.15,2.54,2.31,3.82,6.89,3.84,7a21,21,0,0,0,2.27,5,33.84,33.84,0,0,1,2,4.95.42.42,0,0,0,.38.27l.12,0a.36.36,0,0,0,.23-.48A33.48,33.48,0,0,0,555.1,428Zm6.1-5.08h-.05a39.5,39.5,0,0,1-2-4.63c1.08-3.49,3.09-.66,3.09-.66C560.51,419.67,561.2,422.9,561.2,422.9ZM584.34,462c-3.23,5.14-6.29,21.38-6.42,22a.81.81,0,0,1-.21.41l0,0c-.36-.14-3.45-2.3-7.87-5.5-1.2-.88-2.07-1.5-2.07-1.5a1.17,1.17,0,0,1-.36-1c.36-1.3.73-2.51,1.12-3.61,3.43-9.62,8.55-13.65,8.66-13.74a.9.9,0,0,1,.69-.29,1.52,1.52,0,0,1,.46.08,39.86,39.86,0,0,1,6.14,2.32C584.72,461.49,584.37,462,584.34,462ZM630,389.85H518.74v143.4c-2.2,1.09-4.41,2.13-6.58,3.1-2.17-1-4.37-2-6.58-3.07V389.85H394v-13.2H505.58V268.59h13.16V376.65H630Z" transform="translate(-246.71 -118.22)"/><path class="cls-1" d="M564.4,473.47h0Z" transform="translate(-246.71 -118.22)"/><path class="cls-1" d="M539.31,417.92a1.07,1.07,0,0,1,.19-.07A.62.62,0,0,0,539.31,417.92Z" transform="translate(-246.71 -118.22)"/><path class="cls-1" d="M540.23,417.82c.07,0,.13,0,.21.06Z" transform="translate(-246.71 -118.22)"/><path class="cls-1" d="M565.76,471.36a34.49,34.49,0,0,0-1.38-4.41l0-.1-4.5-6.21a6.64,6.64,0,0,0-2.94-2.21c-7.41-3.68-9.47-13.57-9.51-18.27,0-.51,0-.86,0-.86a.18.18,0,0,0,0-.1l-2.15-8.82a11.65,11.65,0,0,0-.45-1.45c-1.12-2.94-2.2-6.32-2.22-6.36-.53-1.69-1.12-3.42-1.6-4.76a.37.37,0,0,0-.17-.2h0l-.08-.05a1.62,1.62,0,0,0-.79-.23c-1.75,0-2.36,3.43-2.43,3.86-.09,1.66-2,8.9-2,9a4.52,4.52,0,0,0,.43,3.3c.41.9,2.49,4.55,2.56,4.65a12.61,12.61,0,0,1,1.11,4.23c.47,12.67,6,17.15,6.22,17.31a2.85,2.85,0,0,1,.88,1.36,5.24,5.24,0,0,1,.25,1.53c0,.41.06.87.1,1.34a7,7,0,0,0-1.29,4.48,5.6,5.6,0,0,0,.24,1.26,7.81,7.81,0,0,0,2.13,2.71h0a.11.11,0,0,0,0,0h0a13.25,13.25,0,0,0,4.8,2.55,13.87,13.87,0,0,0,4.61.73,14.16,14.16,0,0,0,6.41-1.5,6.22,6.22,0,0,0,1.94-1.63.34.34,0,0,0,.07-.32C565.89,471.89,565.82,471.61,565.76,471.36Zm-19.07-2a4.84,4.84,0,0,1-.22-1.07,6,6,0,0,1,.66-3.09c.21,2.14.51,4.46.68,5.79A6.31,6.31,0,0,1,546.69,469.39Zm16.93,4.11a13.33,13.33,0,0,1-6.07,1.43,13.14,13.14,0,0,1-4.36-.7,12.43,12.43,0,0,1-4.48-2.33c-.11-.76-.64-4.84-.92-7.93,0-.52-.09-1-.12-1.51a6.18,6.18,0,0,0-.27-1.61,3.43,3.43,0,0,0-1.13-1.75c-.06-.05-5.49-4.48-5.95-16.7a13.26,13.26,0,0,0-1.17-4.59s-2.18-3.78-2.59-4.69a3.76,3.76,0,0,1-.35-2.76c.08-.31,1.92-7.39,2-9.09.16-1,.79-3.18,1.66-3.18a.93.93,0,0,1,.4.12l.58,1.74a6.45,6.45,0,0,1-.11,3.69,1.57,1.57,0,0,0-.08.88,21.06,21.06,0,0,1,.17,6.08.83.83,0,0,0,.24.78l.25.32a19.82,19.82,0,0,1,3.87,6.58.37.37,0,0,0,.36.27l.12,0a.38.38,0,0,0,.24-.48,20.87,20.87,0,0,0-4-6.84l-.25-.31a.51.51,0,0,1-.09-.14v0a21.22,21.22,0,0,0-.17-6.37.78.78,0,0,1,0-.42,5.17,5.17,0,0,0,.33-1.27.28.28,0,0,0,0,.13s1.09,3.44,2.22,6.39a9.34,9.34,0,0,1,.42,1.35s1.13,4.57,2.15,8.78v.83c0,.57.27,14.14,10,19a5.81,5.81,0,0,1,2.61,1.93l4.48,6.19a32,32,0,0,1,1.33,4.28c0,.2.1.43.18.7A5,5,0,0,1,563.62,473.5Z" transform="translate(-246.71 -118.22)"/><path class="cls-1" d="M562.48,424.56s-.4-.68-.91-1.67a.16.16,0,0,0,0-.07s-.61-3.08.93-5a.39.39,0,0,0,0-.47,2.81,2.81,0,0,0-1.91-1.23c-.81,0-1.44.67-1.85,2a.49.49,0,0,0,0,.24,41.5,41.5,0,0,0,2.08,4.69h0c.55,1.09,1,1.85,1,1.86,3.36,5.17,3.42,7.44,3.42,7.47a.37.37,0,0,0,.37.38h0a.41.41,0,0,0,.4-.37C566,432.33,566,430,562.48,424.56Zm-1.8-3.47c-.57-1.26-1-2.45-1.18-2.84.22-.64.57-1.34,1.09-1.34a1.8,1.8,0,0,1,1.12.7A6.43,6.43,0,0,0,560.68,421.09Z" transform="translate(-246.71 -118.22)"/><path class="cls-1" d="M618.33,169.63a8.32,8.32,0,0,0-1.08-4.82,7.73,7.73,0,0,0-3.89-2.85,6.75,6.75,0,0,0-5-.11,5.33,5.33,0,0,0-3.26,3.25,6,6,0,0,0,.14,4.84c.7,1.58,2.38,3.77,5,6.59a20.49,20.49,0,0,1,5.06,8.19,13,13,0,0,1-.55,8.22,13.63,13.63,0,0,1-8,8.17,16,16,0,0,1-12-.11,23.42,23.42,0,0,1-5.07-2.7,24.92,24.92,0,0,1-4.41-3.82c1-1.29,1.81-2.42,2.47-3.4s1.42-2.14,2.22-3.52l1.28.46a10.62,10.62,0,0,0,1.15,6.06,8.57,8.57,0,0,0,4.54,3.5,7.72,7.72,0,0,0,5.7.15,6.45,6.45,0,0,0,3.53-8.71q-1.15-2.47-5.38-7a19.57,19.57,0,0,1-4.88-7.88,12.37,12.37,0,0,1,.55-7.94,13.67,13.67,0,0,1,7.42-8,13.92,13.92,0,0,1,11-.13,20.78,20.78,0,0,1,4.76,2.58,26.33,26.33,0,0,1,4.26,4c-.92,1-1.66,1.83-2.27,2.58s-1.29,1.67-2.09,2.76Z" transform="translate(-246.71 -118.22)"/><path class="cls-1" d="M571.21,616.94c.43-4.54.84-9.66,1.23-15.33q1-14.29,1.18-23.87a21.14,21.14,0,0,0,2.34-.6,19.44,19.44,0,0,0,2.25-.9q5.82,7.57,14.91,18.54c3.62,4.39,6.93,8.31,9.87,11.76,1.74,2,3,3.5,3.76,4.34s1.44,1.58,2,2.14c-1.57.44-3.35,1-5.33,1.62s-3.7,1.26-5.23,1.83c-1.3-2-2.26-3.45-2.88-4.37s-1.24-1.71-1.82-2.43l-3.18-4.06c-2.48.52-5.12,1.19-7.86,2a30.62,30.62,0,0,0-6.13,2.6c-.11,1.73-.17,3.44-.19,5.1,0,.57,0,1.38,0,2.48s.15,3,.33,5.75c-1,.23-2,.54-3.21.92s-2.2.76-3.1,1.13c.13-.75.27-1.72.4-2.89S570.94,619.66,571.21,616.94Zm5.57-17.1-.23,5.17a37.61,37.61,0,0,0,5.15-1.43c1.92-.63,3.71-1.33,5.4-2.06l-.18-.21c-3.41-4.3-6.6-8.24-9.52-11.78h0C577.17,592.7,577,596.13,576.78,599.84Z" transform="translate(-246.71 -118.22)"/></svg>